<svg width="273" height="145" viewBox="0 0 273 145" fill="none" xmlns="http://www.w3.org/2000/svg">
<mask id="mask0_7705_4873" style="mask-type:alpha" maskUnits="userSpaceOnUse" x="0" y="0" width="273" height="145">
<rect x="0.5625" width="271.874" height="145" fill="#D9D9D9"/>
</mask>
<g mask="url(#mask0_7705_4873)">
<mask id="path-2-inside-1_7705_4873" fill="white">
<path d="M8.65114 139.407C4.64558 139.407 1.37849 136.158 1.5895 132.158C2.39472 116.893 5.73829 101.861 11.4941 87.7061C18.1592 71.3149 27.9285 56.4215 40.244 43.8763C52.5596 31.331 67.1803 21.3795 83.2714 14.5901C97.0845 8.76181 111.749 5.36163 126.642 4.51568C130.715 4.2843 134.026 7.61386 134.026 11.6941C134.026 15.7744 130.715 19.0576 126.643 19.3173C113.656 20.1458 100.875 23.1557 88.8224 28.2413C74.4912 34.2882 61.4695 43.1512 50.5009 54.3244C39.5323 65.4976 30.8315 78.7621 24.8953 93.3606C19.8686 105.723 16.9077 118.836 16.1184 132.158C15.8815 136.157 12.6567 139.407 8.65114 139.407Z"/>
</mask>
<path d="M8.65114 139.407C4.64558 139.407 1.37849 136.158 1.5895 132.158C2.39472 116.893 5.73829 101.861 11.4941 87.7061C18.1592 71.3149 27.9285 56.4215 40.244 43.8763C52.5596 31.331 67.1803 21.3795 83.2714 14.5901C97.0845 8.76181 111.749 5.36163 126.642 4.51568C130.715 4.2843 134.026 7.61386 134.026 11.6941C134.026 15.7744 130.715 19.0576 126.643 19.3173C113.656 20.1458 100.875 23.1557 88.8224 28.2413C74.4912 34.2882 61.4695 43.1512 50.5009 54.3244C39.5323 65.4976 30.8315 78.7621 24.8953 93.3606C19.8686 105.723 16.9077 118.836 16.1184 132.158C15.8815 136.157 12.6567 139.407 8.65114 139.407Z" stroke="#FF718B" stroke-width="22.703" stroke-linecap="round" stroke-linejoin="round" mask="url(#path-2-inside-1_7705_4873)"/>
<mask id="path-3-inside-2_7705_4873" fill="white">
<path d="M141.518 11.6437C141.678 7.64534 145.049 4.51223 149.034 4.87675C164.005 6.24617 178.638 10.0595 192.328 16.1586C196.041 17.8126 197.434 22.2871 195.527 25.876C193.66 29.3888 189.327 30.731 185.685 29.1297C173.894 23.945 161.328 20.6584 148.473 19.3964C144.482 19.0046 141.357 15.6503 141.518 11.6437Z"/>
</mask>
<path d="M141.518 11.6437C141.678 7.64534 145.049 4.51223 149.034 4.87675C164.005 6.24617 178.638 10.0595 192.328 16.1586C196.041 17.8126 197.434 22.2871 195.527 25.876C193.66 29.3888 189.327 30.731 185.685 29.1297C173.894 23.945 161.328 20.6584 148.473 19.3964C144.482 19.0046 141.357 15.6503 141.518 11.6437Z" stroke="#FCB5C3" stroke-width="22.703" stroke-linecap="round" stroke-linejoin="round" mask="url(#path-3-inside-2_7705_4873)"/>
<mask id="path-4-inside-3_7705_4873" fill="white">
<path d="M202.099 29.2232C204.169 25.8252 208.594 24.6983 211.914 26.8909C222.058 33.5911 231.229 41.6121 239.175 50.7336C241.871 53.8277 241.227 58.5176 237.942 60.977C234.739 63.3752 230.222 62.7479 227.58 59.7432C220.811 52.0465 213.059 45.24 204.515 39.4926C201.137 37.2202 199.982 32.7003 202.099 29.2232Z"/>
</mask>
<path d="M202.099 29.2232C204.169 25.8252 208.594 24.6983 211.914 26.8909C222.058 33.5911 231.229 41.6121 239.175 50.7336C241.871 53.8277 241.227 58.5176 237.942 60.977C234.739 63.3752 230.222 62.7479 227.58 59.7432C220.811 52.0465 213.059 45.24 204.515 39.4926C201.137 37.2202 199.982 32.7003 202.099 29.2232Z" stroke="#FFEB3A" stroke-width="22.703" stroke-linecap="round" stroke-linejoin="round" mask="url(#path-4-inside-3_7705_4873)"/>
<mask id="path-5-inside-4_7705_4873" fill="white">
<path d="M242.527 66.8175C245.869 64.607 250.386 65.474 252.47 68.8971C264.153 88.0887 270.705 109.871 271.515 132.212C271.662 136.288 268.269 139.529 264.192 139.449C260.11 139.368 256.892 135.989 256.715 131.911C255.881 112.645 250.252 93.8687 240.324 77.2299C238.22 73.7041 239.102 69.0822 242.527 66.8175Z"/>
</mask>
<path d="M242.527 66.8175C245.869 64.607 250.386 65.474 252.47 68.8971C264.153 88.0887 270.705 109.871 271.515 132.212C271.662 136.288 268.269 139.529 264.192 139.449C260.11 139.368 256.892 135.989 256.715 131.911C255.881 112.645 250.252 93.8687 240.324 77.2299C238.22 73.7041 239.102 69.0822 242.527 66.8175Z" stroke="#7FE47E" stroke-width="22.703" stroke-linecap="round" stroke-linejoin="round" mask="url(#path-5-inside-4_7705_4873)"/>
</g>
</svg>
